<?xml version="1.0" encoding="UTF-8"?>
<svg version="1.1" xmlns="http://www.w3.org/2000/svg" width="512" height="512">
<path d="M0 0 C2.27395666 0.0214134 4.54474387 0.00014457 6.81860352 -0.02539062 C16.32595302 -0.04274146 23.8813011 1.16937728 32.09399414 6.20898438 C39.73303468 14.06022049 43.00964283 22.84667388 44.34399414 33.52148438 C45.91270537 35.09019561 47.50593619 34.68525023 49.68383789 34.73242188 C51.03251953 34.77496094 51.03251953 34.77496094 52.40844727 34.81835938 C54.28848178 34.869482 56.16870988 34.91401581 58.04907227 34.95117188 C68.17641687 35.29520057 76.87732783 37.35925295 84.34399414 44.52148438 C92.34399414 53.74815104 92.34399414 53.74815104 92.34399414 59.52148438 C93.85496925 59.50816071 93.85496925 59.50816071 95.39646912 59.49456787 C104.91494728 59.41328779 114.43335453 59.353426 123.95210171 59.31423569 C128.8451687 59.29340977 133.7379543 59.26518386 138.63085938 59.21972656 C143.35765897 59.17609002 148.08418883 59.15230973 152.81117439 59.1419754 C154.60961207 59.13461589 156.4080359 59.1202447 158.20635796 59.09856415 C176.18931747 58.89049206 176.18931747 58.89049206 183.34399414 63.52148438 C184.25149414 64.05773437 185.15899414 64.59398438 186.09399414 65.14648438 C194.09521287 73.59221525 194.06308242 83.20268718 193.93774414 94.14257812 C193.93603012 95.73535573 193.93610168 97.32813615 193.93786621 98.9209137 C193.93622219 102.23848913 193.91768219 105.55538121 193.88598633 108.87280273 C193.84608326 113.12554856 193.84197278 117.37741129 193.84944916 121.6303091 C193.85251486 124.90999961 193.84041646 128.18949125 193.82331848 131.46913338 C193.81629164 133.03802304 193.81316357 134.60693521 193.81401062 136.17584038 C193.81221553 138.36105268 193.79086813 140.54519683 193.76391602 142.73022461 C193.75549683 143.97247299 193.74707764 145.21472137 193.73840332 146.49461365 C193.34399414 149.52148438 193.34399414 149.52148438 192.06774902 151.44593811 C190.34399414 152.52148438 190.34399414 152.52148438 186.34399414 152.52148438 C186.67399414 157.80148438 187.00399414 163.08148438 187.34399414 168.52148438 C188.09422852 167.58046875 188.84446289 166.63945312 189.61743164 165.66992188 C202.8792739 149.39976749 202.8792739 149.39976749 213.34399414 147.52148438 C223.94544136 146.70701551 232.63615008 147.57954032 241.15649414 154.27148438 C248.23619231 160.90035271 251.33782075 168.7062822 251.71899414 178.33398438 C251.41578079 190.5534826 244.79926173 198.42556744 237.34399414 207.52148438 C236.29130085 208.8191669 235.23923583 210.11735928 234.18774414 211.41601562 C232.5391503 213.44927313 230.88863917 215.48084792 229.23291016 217.50830078 C225.72102115 221.80901408 222.26034245 226.14458124 218.84399414 230.52148438 C214.90214113 235.57002468 210.89361001 240.55899404 206.84399414 245.52148438 C202.57188137 250.75906792 198.33506764 256.02138624 194.15649414 261.33398438 C193.69887695 261.91470703 193.24125977 262.49542969 192.76977539 263.09375 C188.39319559 268.44896014 188.39319559 268.44896014 186.92993164 274.97070312 C186.89125977 275.81826172 186.85258789 276.66582031 186.81274414 277.5390625 C186.76633789 278.86067383 186.76633789 278.86067383 186.71899414 280.20898438 C186.68032227 281.10166016 186.64165039 281.99433594 186.60180664 282.9140625 C186.50759196 285.11633057 186.42197826 287.3185916 186.34399414 289.52148438 C186.94211914 289.62460937 187.54024414 289.72773438 188.15649414 289.83398438 C190.85654111 290.68257057 191.69695737 291.20021026 193.34399414 293.52148438 C193.64093207 296.25533699 193.75297265 298.76208934 193.73167419 301.49711609 C193.7397525 302.72981058 193.7397525 302.72981058 193.74799401 303.98740798 C193.76234268 306.75111478 193.75515283 309.51434726 193.74804688 312.27807617 C193.75374702 314.25566495 193.76070989 316.23325043 193.7688446 318.21083069 C193.78683527 323.59123106 193.78559597 328.97146887 193.77990222 334.35189033 C193.77681738 338.84228693 193.7828953 343.33265199 193.78894097 347.82304412 C193.8030054 358.41940947 193.80141035 369.01569424 193.79003906 379.61206055 C193.77856926 390.54166104 193.79261008 401.47101583 193.81943554 412.40058392 C193.84159978 421.78245036 193.84822787 431.16423972 193.84235913 440.54613048 C193.83898848 446.15006786 193.84141127 451.75384792 193.85861015 457.35776329 C193.87408748 462.6314385 193.87011473 467.90475058 193.85130501 473.17841148 C193.84762063 475.11173432 193.85072316 477.0450841 193.8611908 478.97838211 C193.8744136 481.62298312 193.86284189 484.26638442 193.84519958 486.91093445 C193.85480459 487.67155691 193.8644096 488.43217938 193.87430567 489.21585101 C193.78539093 495.71823221 191.67251444 500.86428626 187.37915039 505.76367188 C186.72817383 506.3025 186.07719727 506.84132813 185.40649414 507.39648438 C184.7580957 507.95078125 184.10969727 508.50507813 183.44165039 509.07617188 C179.16784918 512.02087662 175.46468579 512.7719892 170.31904984 512.78154659 C169.10242322 512.78861218 167.88579661 512.79567778 166.63230252 512.80295748 C165.28548732 512.80070621 163.93867244 512.79825972 162.59185791 512.79563904 C161.1585235 512.80009194 159.72519155 512.80540616 158.2918632 512.81150776 C154.35276881 512.82569196 150.41375331 512.82735098 146.47463703 512.82691085 C142.22637105 512.82855869 137.9781376 512.84162458 133.72988892 512.85310364 C124.44062122 512.87595521 115.15137638 512.88387438 105.86208439 512.88893008 C100.06162488 512.89218685 94.26117201 512.8987092 88.46071625 512.90593147 C72.40012958 512.92549743 56.33954909 512.94190172 40.27894974 512.94480801 C39.25116069 512.94499558 38.22337163 512.94518315 37.16443746 512.9453764 C35.08086888 512.94574265 32.9973003 512.94610635 30.91373172 512.94646751 C29.87944879 512.94665032 28.84516586 512.94683313 27.77954102 512.94702148 C26.74399538 512.94720203 25.70844974 512.94738258 24.64152393 512.9475686 C7.86076161 512.95111049 -8.9198724 512.97813382 -25.70059022 513.01551937 C-42.93009793 513.05359755 -60.15954196 513.07296545 -77.38909268 513.07326752 C-87.06248611 513.07385219 -96.73572647 513.08235055 -106.40908051 513.11126518 C-114.64583003 513.13577247 -122.88237067 513.14306636 -131.11914679 513.12801766 C-135.32085227 513.12084612 -139.52214519 513.12171644 -143.72380447 513.14442825 C-147.57320124 513.16503639 -151.42186877 513.16240145 -155.27125779 513.14155341 C-156.66090135 513.13806196 -158.05059772 513.14295407 -159.44017205 513.15725785 C-168.88799739 513.24821244 -175.79008775 512.17233428 -182.77709961 505.49414062 C-183.21151367 504.86378906 -183.64592773 504.2334375 -184.09350586 503.58398438 C-184.5459668 502.95621094 -184.99842773 502.3284375 -185.46459961 501.68164062 C-188.25131613 496.62900379 -188.90716175 492.04997471 -188.91606808 486.32992172 C-188.91987375 485.62531954 -188.92367942 484.92071736 -188.92760041 484.1947636 C-188.93790643 481.83384874 -188.93401189 479.47317474 -188.93016052 477.11224365 C-188.93461346 475.40239771 -188.93992769 473.69255384 -188.94602925 471.98271298 C-188.96021289 467.28390618 -188.96187247 462.58516552 -188.96143234 457.88634038 C-188.96308021 452.81870864 -188.97614613 447.75110417 -188.98762512 442.68348694 C-189.01047596 431.60294605 -189.01839572 420.52242431 -189.02345157 409.44186306 C-189.02670827 402.52326357 -189.03323057 395.60466965 -189.04045296 388.6860733 C-189.06001844 369.53037571 -189.07642314 350.37468329 -189.07932949 331.21897507 C-189.07951706 329.99314274 -189.07970463 328.76731042 -189.07989788 327.50433166 C-189.08026413 325.01927678 -189.08062783 322.53422189 -189.080989 320.04916701 C-189.08117181 318.8155835 -189.08135462 317.58199999 -189.08154297 316.31103516 C-189.08172352 315.07594614 -189.08190407 313.84085712 -189.08209009 312.56834117 C-189.08563235 292.55183082 -189.11265826 272.53542801 -189.15004086 252.51895496 C-189.18811399 231.96830544 -189.20748689 211.41770929 -189.207789 190.86702371 C-189.20837377 179.32852915 -189.21687844 167.7901629 -189.24578667 156.25170135 C-189.27028711 146.42740183 -189.27759236 136.60327742 -189.26253914 126.77895561 C-189.25536502 121.76703741 -189.25624957 116.75546511 -189.27894974 111.74358559 C-189.29954331 107.15281317 -189.29693579 102.56265248 -189.27607489 97.97188666 C-189.27258075 96.31375181 -189.27748684 94.65557279 -189.29177933 92.99749586 C-189.37197679 83.0503559 -188.98061407 74.37263732 -181.92989153 66.62467647 C-175.85173975 60.72159718 -168.51063777 59.07296442 -160.31225586 59.08911133 C-159.52104843 59.07891968 -158.729841 59.06872803 -157.91465759 59.05822754 C-155.32836641 59.02830128 -152.74244681 59.01886315 -150.15600586 59.00976562 C-148.35138742 58.99290378 -146.54678062 58.97475153 -144.7421875 58.95536804 C-140.0142175 58.9080253 -135.2862947 58.87811447 -130.5581665 58.85192871 C-125.72479942 58.82204354 -120.89159471 58.77554066 -116.05834961 58.73046875 C-106.59098691 58.64461472 -97.12359062 58.57719011 -87.65600586 58.52148438 C-87.314646 57.83151367 -86.97328613 57.14154297 -86.62158203 56.43066406 C-85.94832886 55.07569824 -85.94832886 55.07569824 -85.26147461 53.69335938 C-84.81698975 52.79713867 -84.37250488 51.90091797 -83.91455078 50.97753906 C-80.00005811 43.33839333 -73.50747905 39.31308171 -65.57788086 36.38476562 C-60.40066222 35.01041358 -55.04268028 35.05511899 -49.71850586 34.89648438 C-48.6530957 34.8578125 -47.58768555 34.81914063 -46.48999023 34.77929688 C-43.87882852 34.68562291 -41.26766282 34.59990102 -38.65600586 34.52148438 C-38.61354736 33.79993164 -38.57108887 33.07837891 -38.52734375 32.33496094 C-37.82096861 22.55840234 -35.19544275 14.4028973 -27.84350586 7.52148438 C-26.07397461 6.02148438 -26.07397461 6.02148438 -23.65600586 4.52148438 C-22.82854858 3.99844727 -22.82854858 3.99844727 -21.984375 3.46484375 C-15.01134477 -0.3095257 -7.71250086 -0.08636805 0 0 Z " fill="#010202" transform="translate(224.656005859375,-0.521484375)"/>
<path d="M0 0 C16.5 0 33 0 50 0 C50.66 4.29 51.32 8.58 52 13 C54.43174653 17.95034115 57.25567851 20.27231169 62 23 C65.16922491 23.5928539 65.16922491 23.5928539 68.55209351 23.50793457 C70.50341438 23.52485352 70.50341438 23.52485352 72.49415588 23.54211426 C73.92367778 23.53433803 75.35319747 23.52614542 76.78271484 23.51757812 C78.29770072 23.52300208 79.81268132 23.53012628 81.32765198 23.53881836 C85.4332068 23.55702549 89.53835872 23.54999431 93.64392042 23.53730202 C97.94700149 23.52715704 102.25004864 23.53657219 106.5531311 23.54284668 C113.78092625 23.5501203 121.00855783 23.54054455 128.23632812 23.52148438 C136.58089466 23.49973259 144.92506998 23.50675572 153.26962698 23.52879 C160.4435206 23.54697185 167.61729677 23.54948824 174.791206 23.53903532 C179.07159685 23.53281354 183.35180417 23.53192805 187.63218307 23.54518127 C191.65919889 23.55677922 195.68571317 23.54864269 199.71267509 23.52560425 C201.1864139 23.5203374 202.66019527 23.52179614 204.13391685 23.53065491 C212.14405176 23.57434678 218.20961766 23.48145001 225 19 C226.89976472 17.06656288 226.89976472 17.06656288 227.9375 14.8125 C228.31777344 14.11769531 228.69804687 13.42289063 229.08984375 12.70703125 C230.42841045 9.04254027 230.42841045 9.04254027 231 1 C247.17 1 263.34 1 280 1 C280.0093457 4.48780029 280.01869141 7.97560059 280.02832031 11.5690918 C280.06206609 23.08433206 280.11740033 34.59941196 280.18390274 46.11450481 C280.22370047 53.09709238 280.25608913 60.07956713 280.27099609 67.06225586 C280.28539925 73.79918446 280.32050174 80.53571302 280.36830902 87.27250099 C280.38316246 89.84451067 280.39104327 92.41657024 280.39188385 94.98862267 C280.39424322 98.58744085 280.42124207 102.18528476 280.45410156 105.78393555 C280.4490712 106.85064484 280.44404083 107.91735413 280.43885803 109.01638794 C280.50210553 113.48471032 280.54820278 116.23212765 282.84661865 120.13850403 C284.94865811 122.19465374 284.94865811 122.19465374 288 123 C289.86565618 141.90154698 289.86565618 141.90154698 284.62475586 148.34423828 C282.65430729 150.44288149 280.62647784 152.46682072 278.54345703 154.45361328 C275.970889 157.03106439 273.82428022 159.91707094 271.625 162.8125 C267.65099996 167.93142969 263.59877306 172.98054049 259.5 178 C255.45008576 182.9622445 251.44194641 187.95154232 247.5 193 C243.0179989 198.74010668 238.44043443 204.39693246 233.8359375 210.0390625 C230.34469917 214.32451618 226.90181112 218.64329453 223.5 223 C219.0179989 228.74010668 214.44043443 234.39693246 209.8359375 240.0390625 C206.34469917 244.32451618 202.90181112 248.64329453 199.5 253 C195.01736805 258.74091461 190.43955976 264.39887777 185.83374023 270.04125977 C182.36106518 274.30310909 178.94173694 278.60131101 175.5625 282.9375 C171.4606148 288.19756455 167.2539884 293.36230505 163 298.5 C157.39591896 305.27331066 151.8103446 312.06582578 146.49731445 319.07177734 C145.41146423 320.47012156 144.28432681 321.8367151 143.13354492 323.18212891 C134.95237207 333.21668113 129.71076107 344.88838346 124.05964279 356.45780945 C121.56559827 361.55237079 119.05529788 366.63896256 116.54907227 371.72753906 C115.49108579 373.8766239 114.43314444 376.02573095 113.3752594 378.17486572 C112.58350627 379.78324382 111.79175313 381.39162191 111 383 C96.8227226 383.0466805 82.64545709 383.08183655 68.46811867 383.10362434 C61.88561978 383.11407927 55.30317238 383.12826959 48.72070312 383.15087891 C42.37299465 383.17254641 36.02533582 383.18455573 29.67759323 383.18975449 C27.25099277 383.19346122 24.82439514 383.20069911 22.3978157 383.21146011 C19.00945326 383.22589404 15.6212982 383.22798134 12.23291016 383.22705078 C11.22087021 383.23424133 10.20883026 383.24143188 9.16612244 383.24884033 C8.24623032 383.246091 7.3263382 383.24334167 6.37857056 383.24050903 C5.57661066 383.24235262 4.77465076 383.24419621 3.94838905 383.24609566 C2 383 2 383 0 381 C-0.24839699 378.30861986 -0.24839699 378.30861986 -0.24609566 374.80368614 C-0.24840335 374.15810808 -0.25071103 373.51253002 -0.25308865 372.84738898 C-0.25842306 370.66324388 -0.24937638 368.47938796 -0.24050903 366.29525757 C-0.2413804 364.72198181 -0.2431301 363.14870634 -0.24568737 361.57543242 C-0.25017848 357.23591469 -0.24213313 352.89649491 -0.23213124 348.55698967 C-0.22352432 343.88349781 -0.22641494 339.21001183 -0.22793579 334.53651428 C-0.2289864 326.43396055 -0.22269151 318.33143893 -0.21146011 310.22889328 C-0.19523178 298.51386018 -0.18999985 286.79884268 -0.18748413 275.08379956 C-0.18310283 256.07864402 -0.16978195 237.07350561 -0.15087891 218.06835938 C-0.13253135 199.60253994 -0.11836935 181.13672515 -0.10986328 162.67089844 C-0.10933783 161.53337857 -0.10881239 160.3958587 -0.10827102 159.22386853 C-0.10566101 153.51747868 -0.10313358 147.8110888 -0.10064721 142.1046989 C-0.07990117 94.73645346 -0.04411483 47.36822895 0 0 Z " fill="#F5EEEE" transform="translate(87,74)"/>
<path d="M0 0 C1.11761719 0.02707031 1.11761719 0.02707031 2.2578125 0.0546875 C4.08909701 0.10164351 5.91971649 0.17338348 7.75 0.25 C7.75146521 1.45472002 7.75146521 1.45472002 7.75296003 2.68377781 C7.81121856 50.2735267 7.88500512 97.86322989 7.97898628 145.45292234 C7.99025459 151.16571754 8.00139302 156.87851299 8.01245117 162.59130859 C8.01465486 163.72863434 8.01685854 164.86596008 8.019129 166.03775024 C8.05451166 184.45870574 8.07937033 202.87966119 8.10034702 221.30063808 C8.12210134 240.19903132 8.15514828 259.09738042 8.19870156 277.99573612 C8.22522458 289.65917661 8.24291517 301.32256208 8.24934604 312.98603123 C8.25459791 320.98161608 8.2708082 328.97713168 8.29566566 336.97267944 C8.30968745 341.58726149 8.31884891 346.20171955 8.31500816 350.81632423 C8.31159777 355.04198151 8.32196376 359.26737398 8.34323552 363.49297702 C8.34850349 365.02069102 8.34873822 366.54843251 8.34339563 368.07614625 C7.93159202 380.20053082 7.93159202 380.20053082 13.09561044 390.7556591 C19.35550034 396.36045953 25.1472433 396.55127545 33.13989258 396.56884766 C34.18425476 396.57889328 35.22861694 396.5889389 36.30462646 396.59928894 C39.75125588 396.63014134 43.19780753 396.64716203 46.64453125 396.6640625 C49.03635834 396.68277246 51.42817881 396.70234575 53.81999207 396.7227478 C60.11144108 396.77409297 66.40291149 396.81370609 72.69445801 396.85089111 C79.11602077 396.89091569 85.5374943 396.94201512 91.95898438 396.9921875 C104.5559258 397.0889751 117.1529184 397.17374707 129.75 397.25 C130.00974609 397.79994629 130.26949219 398.34989258 130.53710938 398.91650391 C131.06014648 399.99810791 131.06014648 399.99810791 131.59375 401.1015625 C132.10711914 402.17398193 132.10711914 402.17398193 132.63085938 403.26806641 C134.19174748 406.03230935 136.10963239 407.53376106 138.75 409.25 C139.348125 409.6625 139.94625 410.075 140.5625 410.5 C146.11912381 412.40512816 150.69072509 411.53600477 155.93557549 409.25706673 C158.30505398 407.94192634 159.97001378 406.09301082 161.81307888 404.13195133 C169.7981527 396.15878013 178.41294269 396.0385527 189.24073887 395.93601131 C192.69262429 395.93987187 196.14245218 395.99900361 199.59363437 396.06446385 C203.23376336 396.12059713 206.87370333 396.11019071 210.51417542 396.10630798 C217.39445341 396.10812156 224.27315986 396.1621742 231.1529761 396.2385754 C243.48440937 396.37401781 255.81630882 396.42403067 268.14841515 396.44801325 C272.4689004 396.45855378 276.78829181 396.49349676 281.10842407 396.54917634 C283.14694102 396.57299226 285.18530055 396.58790275 287.22392273 396.59912109 C289.70198261 396.61347175 292.18002046 396.64238265 294.65768433 396.68894958 C301.33827622 396.70099798 305.25337256 396.08689716 310.75 392.25 C311.41 392.25 312.07 392.25 312.75 392.25 C313.03875 391.6725 313.3275 391.095 313.625 390.5 C314.31382311 389.12235377 315.03360868 387.75901566 315.80401897 386.42527866 C316.92167041 383.85524474 317.00420344 381.99377526 317.01069641 379.19554138 C317.01778122 378.17626556 317.02486603 377.15698975 317.03216553 376.10682678 C317.0284494 374.4383091 317.0284494 374.4383091 317.0246582 372.73608398 C317.02976913 371.56013672 317.03488007 370.38418945 317.04014587 369.17260742 C317.05166171 365.95162305 317.05411607 362.73079831 317.05158257 359.50979877 C317.05051251 356.82074606 317.05539692 354.13171707 317.060188 351.44266945 C317.07127827 345.10051481 317.07172269 338.75841941 317.06567383 332.41625977 C317.05962761 325.87122726 317.07196241 319.32640938 317.0932439 312.7814135 C317.11084525 307.16178562 317.11686376 301.54222616 317.11360615 295.92257172 C317.11179147 292.56620035 317.11444809 289.20998223 317.12832069 285.85363579 C317.14060457 282.11376072 317.13394199 278.37438801 317.12231445 274.63452148 C317.12995819 273.52015213 317.13760193 272.40578278 317.14547729 271.25764465 C317.13846298 270.24118866 317.13144867 269.22473267 317.1242218 268.17747498 C317.12438954 267.29314002 317.12455729 266.40880507 317.12473011 265.49767208 C316.66862822 262.76192316 315.96585311 261.87748548 313.75 260.25 C310.36600701 259.74600104 308.52263221 259.77215938 305.59072876 261.5854187 C302.6339548 265.86555207 303.19692935 270.23985237 303.23583984 275.32080078 C303.22871475 276.44958649 303.22158966 277.57837219 303.21424866 278.74136353 C303.1949331 282.47619002 303.20325291 286.21045247 303.2109375 289.9453125 C303.20103711 292.53556145 303.18909839 295.12580335 303.17520142 297.71603394 C303.14610239 303.84052119 303.13324761 309.96482416 303.12962496 316.08937347 C303.12257858 327.71397229 303.08732969 339.33840293 303.0361824 350.96288681 C303.02354217 354.78863124 303.02435995 358.61421072 303.02645874 362.43997192 C303.01988177 364.77264536 303.01287617 367.10531764 303.00537109 369.43798828 C303.01155708 371.04480469 303.01155708 371.04480469 303.01786804 372.68408203 C303.0124852 373.65709259 303.00710236 374.63010315 303.0015564 375.63259888 C303.00122091 376.48098391 303.00088543 377.32936893 303.00053978 378.2034626 C302.75 380.25 302.75 380.25 300.75 382.25 C298.80161095 382.49609566 298.80161095 382.49609566 296.37142944 382.49050903 C294.99159126 382.49463303 294.99159126 382.49463303 293.58387756 382.49884033 C292.57183762 382.49164978 291.55979767 382.48445923 290.51708984 382.47705078 C288.92194298 382.47748886 288.92194298 382.47748886 287.29457092 382.47793579 C283.76661116 382.47653835 280.23886053 382.46095756 276.7109375 382.4453125 C274.26999019 382.44158385 271.82904138 382.43873618 269.38809204 382.43673706 C262.9534901 382.42908899 256.51897799 382.40943041 250.08441162 382.3873291 C243.52243261 382.36689594 236.96043913 382.35774076 230.3984375 382.34765625 C217.5155866 382.32618564 204.63279807 382.29241826 191.75 382.25 C191.75 381.59 191.75 380.93 191.75 380.25 C193.72003802 378.66135653 195.70144366 377.16828956 197.75 375.6875 C207.0264748 368.74326745 213.68474195 360.15445528 220.76171875 351.05859375 C223.86971651 347.07734255 227.05487347 343.16144643 230.25 339.25 C234.30001178 334.28782876 238.30785745 329.29830459 242.25 324.25 C248.84978958 315.80371191 255.63814256 307.51247482 262.41601562 299.20898438 C268.54174064 291.70119214 274.62909392 284.17085144 280.59082031 276.53198242 C284.04392545 272.11850576 287.57502073 267.7732517 291.125 263.4375 C295.65877944 257.89718651 300.05576422 252.27143642 304.375 246.5625 C308.67012813 240.88908449 313.0927342 235.37999488 317.73144531 229.98486328 C320.96579576 226.21223623 324.07134782 222.35756539 327.125 218.4375 C331.32876926 213.04547552 335.57781957 207.69298244 339.875 202.375 C340.44395996 201.66625732 341.01291992 200.95751465 341.59912109 200.22729492 C342.95934877 198.54895955 344.35148603 196.89656844 345.75 195.25 C346.08 195.25 346.41 195.25 346.75 195.25 C346.75 201.85 346.75 208.45 346.75 215.25 C344.77 215.91 342.79 216.57 340.75 217.25 C339.21606145 220.3178771 339.60719573 223.53141935 339.61196899 226.89778137 C339.60914771 227.69633866 339.60632643 228.49489594 339.60341966 229.31765193 C339.59504962 232.00840849 339.59373336 234.69912404 339.59228516 237.38989258 C339.58761871 239.31308611 339.58247543 241.23627853 339.57688904 243.1594696 C339.56559409 247.30865691 339.55716667 251.45783698 339.55076981 255.60703468 C339.54010797 262.16575945 339.51986816 268.72443229 339.49765015 275.28312683 C339.43566426 293.93620426 339.38169692 312.58927889 339.34863281 331.24243164 C339.33030189 341.5384842 339.30138507 351.8344501 339.2606281 362.13043898 C339.23953219 367.58167456 339.22409718 373.0328008 339.22182083 378.48407936 C339.21967722 383.61160703 339.20383716 388.73890706 339.17743111 393.86636543 C339.17022566 395.74933366 339.16814315 397.63232942 339.17153358 399.51530838 C339.17542054 402.08423216 339.1609991 404.6524261 339.14199829 407.2212677 C339.14752799 407.96796512 339.15305768 408.71466254 339.15875494 409.48398715 C339.10228292 413.90132411 338.56116235 416.79090325 335.75 420.25 C332.47062137 422.34566179 329.82681477 422.50273973 325.97748661 422.51006222 C324.79173481 422.51712781 323.60598301 422.5241934 322.38429934 422.5314731 C321.08032983 422.52905802 319.77636032 422.52664293 318.43287659 422.52415466 C317.03467759 422.52860634 315.63648111 422.53392016 314.23828834 422.54002339 C310.39182588 422.55422188 306.54544415 422.55586633 302.69895923 422.55542648 C298.55232051 422.55707302 294.40571522 422.57013633 290.25909424 422.58161926 C281.19110325 422.6044792 272.12313565 422.61239064 263.05511975 422.61744571 C257.39523739 422.62070096 251.73536184 422.62722231 246.07548332 422.6344471 C230.41039149 422.65401274 214.74530599 422.67041768 199.08020115 422.67332363 C198.07757923 422.6735112 197.07495731 422.67369877 196.0419529 422.67389202 C194.00933516 422.67425828 191.97671742 422.67462198 189.94409967 422.67498314 C188.43057527 422.67525735 188.43057527 422.67525735 186.88647461 422.67553711 C185.37110734 422.67580793 185.37110734 422.67580793 183.82512658 422.67608423 C167.44575498 422.6796279 151.06651468 422.7066625 134.68718863 422.744035 C117.87809634 422.78208187 101.06906927 422.80148083 84.25993294 422.80178314 C74.81915867 422.80236846 65.37854111 422.81090835 55.93780708 422.83978081 C47.90110743 422.86424611 39.86462166 422.8716104 31.82789487 422.85653328 C27.72592637 422.8493449 23.62438062 422.85030416 19.52245903 422.87294388 C15.76882974 422.89346328 12.01595011 422.89100066 8.26232957 422.87006903 C6.25800778 422.86489577 4.2536695 422.88440737 2.24944407 422.90473074 C1.06108452 422.8935421 -0.12727503 422.88235346 -1.35164547 422.87082577 C-2.37738011 422.87164022 -3.40311476 422.87245468 -4.45993227 422.87329382 C-8.39427095 421.99437287 -9.8541514 420.45337382 -12.25 417.25 C-12.87559515 413.9854421 -12.87559515 413.9854421 -12.87641239 410.19596004 C-12.88338 409.49409088 -12.89034761 408.79222171 -12.89752635 408.06908378 C-12.91480774 405.71102431 -12.89638739 403.3545999 -12.87818909 400.99656677 C-12.88323293 399.29155212 -12.8904605 397.58654275 -12.89968723 395.8815456 C-12.91865947 391.19153733 -12.90634786 386.5020487 -12.8889643 381.81205332 C-12.8756199 376.75609275 -12.8910168 371.70020969 -12.90278625 366.64425659 C-12.9211887 356.73807277 -12.91263331 346.83208587 -12.89469803 336.92590814 C-12.88068699 328.87732427 -12.87677601 320.82879395 -12.8801403 312.78019905 C-12.88061775 311.6358072 -12.88109519 310.49141535 -12.8815871 309.31234496 C-12.8826134 306.98773454 -12.88366876 304.66312413 -12.88475286 302.33851374 C-12.8933251 281.77226721 -12.87662749 261.20611593 -12.84692383 240.63989258 C-12.81808142 220.6697998 -12.811004 200.69984422 -12.82641602 180.72973633 C-12.84316479 158.99767398 -12.8472262 137.26567682 -12.82970566 115.53361279 C-12.82786121 113.21773693 -12.82602648 110.90186106 -12.82420158 108.58598518 C-12.82328949 107.44644543 -12.8223774 106.30690568 -12.82143768 105.13283442 C-12.81582433 97.09054848 -12.81914685 89.04829428 -12.82574654 81.00601006 C-12.83346598 71.21005778 -12.8267772 61.41424071 -12.8015715 51.61831575 C-12.78904459 46.61733485 -12.78296849 41.61656481 -12.79411316 36.61557579 C-12.80411364 32.04177969 -12.795786 27.46840515 -12.77253198 22.8946606 C-12.76734922 21.23594136 -12.76897644 19.57718471 -12.77792663 17.91848152 C-12.78904828 15.67120959 -12.77577171 13.42538151 -12.75615788 11.17819881 C-12.75496639 9.92783209 -12.75377491 8.67746536 -12.75254732 7.38920873 C-12.25 4.25 -12.25 4.25 -10.73399013 1.83261257 C-7.22805263 -0.40110837 -4.00900062 -0.18415904 0 0 Z " fill="#0D7FAB" transform="translate(64.25,74.75)"/>
<path d="M0 0 C3.59860296 1.28210764 6.22495733 2.75896534 9.13671875 5.22265625 C9.87857422 5.84333984 10.62042969 6.46402344 11.38476562 7.10351562 C12.14466797 7.74998047 12.90457031 8.39644531 13.6875 9.0625 C15.2109035 10.34663879 16.73558167 11.6292674 18.26171875 12.91015625 C18.93162842 13.47871338 19.60153809 14.04727051 20.29174805 14.63305664 C21.96483978 16.06977338 21.96483978 16.06977338 24 17 C23.55852566 21.81207032 21.24689078 24.48388843 18.125 27.9375 C17.11242495 29.09446871 16.10207274 30.25338594 15.09375 31.4140625 C14.31837891 32.30399902 14.31837891 32.30399902 13.52734375 33.21191406 C11.13738736 36.00987451 8.87954334 38.9051078 6.625 41.8125 C2.64529243 46.92711877 -1.4011004 51.98038552 -5.5 57 C-9.54991424 61.9622445 -13.55805359 66.95154232 -17.5 72 C-21.9820011 77.74010668 -26.55956557 83.39693246 -31.1640625 89.0390625 C-34.65530083 93.32451618 -38.09818888 97.64329453 -41.5 102 C-45.9820011 107.74010668 -50.55956557 113.39693246 -55.1640625 119.0390625 C-58.65530403 123.32452011 -62.09801821 127.64342485 -65.5 132 C-72.09978958 140.44628809 -78.88814256 148.73752518 -85.66601562 157.04101562 C-91.79009662 164.54679292 -97.87423668 172.07625122 -103.83642578 179.71142578 C-107.87192743 184.86700885 -112.00220971 189.94257117 -116.14428711 195.01269531 C-120.30285502 200.11314249 -124.38256383 205.27078462 -128.3984375 210.484375 C-130.76323512 213.53005862 -133.20579566 216.34131135 -136 219 C-136.44279297 218.6376123 -136.88558594 218.27522461 -137.34179688 217.90185547 C-139.39317524 216.22457082 -141.44657547 214.54977887 -143.5 212.875 C-144.19609375 212.30523437 -144.8921875 211.73546875 -145.609375 211.1484375 C-150.31955729 207.31051119 -155.11110749 203.60744996 -160 200 C-156.94218971 195.22539502 -153.54573062 190.86909548 -149.9375 186.5 C-145.75472768 181.39724072 -141.61501149 176.26930828 -137.5625 171.0625 C-132.88039189 165.05754338 -128.05010968 159.18338469 -123.19384766 153.31884766 C-119.08870595 148.35064851 -115.07466183 143.32146872 -111.11328125 138.23828125 C-107.63146023 133.77910696 -104.07751928 129.38265769 -100.5 125 C-96.45017933 120.03767756 -92.44194806 115.0484598 -88.5 110 C-84.0179989 104.25989332 -79.44043443 98.60306754 -74.8359375 92.9609375 C-71.34469917 88.67548382 -67.90181112 84.35670547 -64.5 80 C-60.0179989 74.25989332 -55.44043443 68.60306754 -50.8359375 62.9609375 C-47.34469597 58.67547989 -43.90198179 54.35657515 -40.5 50 C-34.98603177 42.9433259 -29.3408226 35.99703722 -23.67919922 29.05859375 C-20.844824 25.58382611 -18.01587562 22.10465174 -15.1875 18.625 C-14.37708252 17.62835327 -14.37708252 17.62835327 -13.55029297 16.61157227 C-9.80507389 12.00185004 -6.08577936 7.37265091 -2.390625 2.72265625 C-1 1 -1 1 0 0 Z " fill="#F76830" transform="translate(400,209)"/>
<path d="M0 0 C0.33 0 0.66 0 1 0 C1 6.27 1 12.54 1 19 C-0.98 19.99 -2.96 20.98 -5 22 C-6.20600361 24.41200723 -6.13255256 25.93600374 -6.14476013 28.63085938 C-6.15165863 29.60676025 -6.15855713 30.58266113 -6.16566467 31.58813477 C-6.16827805 32.66248779 -6.17089142 33.73684082 -6.17358398 34.84375 C-6.1836145 36.53649048 -6.1836145 36.53649048 -6.19384766 38.26342773 C-6.20792267 40.71995961 -6.21980886 43.17650475 -6.22979546 45.63305664 C-6.24615775 49.51518583 -6.26939223 53.39721629 -6.29469299 57.27929688 C-6.36561067 68.31896092 -6.42573842 79.35866419 -6.47680664 90.3984375 C-6.50809397 97.14403418 -6.5497722 103.88950326 -6.59700203 110.63500977 C-6.61306711 113.21230026 -6.62536768 115.78961695 -6.63390923 118.36694336 C-6.64600218 121.963497 -6.67012564 125.5597811 -6.69702148 129.15625 C-6.69761063 130.23060303 -6.69819977 131.30495605 -6.69880676 132.41186523 C-6.70852509 133.38776611 -6.71824341 134.36366699 -6.72825623 135.36914062 C-6.73248816 136.22012329 -6.7367201 137.07110596 -6.74108028 137.94787598 C-7 140 -7 140 -9 142 C-10.94838905 142.24609566 -10.94838905 142.24609566 -13.37857056 142.24050903 C-14.75840874 142.24463303 -14.75840874 142.24463303 -16.16612244 142.24884033 C-17.17816238 142.24164978 -18.19020233 142.23445923 -19.23291016 142.22705078 C-20.82805702 142.22748886 -20.82805702 142.22748886 -22.45542908 142.22793579 C-25.98338884 142.22653835 -29.51113947 142.21095756 -33.0390625 142.1953125 C-35.48000981 142.19158385 -37.92095862 142.18873618 -40.36190796 142.18673706 C-46.7965099 142.17908899 -53.23102201 142.15943041 -59.66558838 142.1373291 C-66.22756739 142.11689594 -72.78956087 142.10774076 -79.3515625 142.09765625 C-92.2344134 142.07618564 -105.11720193 142.04241826 -118 142 C-118 141.34 -118 140.68 -118 140 C-116.02996198 138.41135653 -114.04855634 136.91828956 -112 135.4375 C-102.7235252 128.49326745 -96.06525805 119.90445528 -88.98828125 110.80859375 C-85.88028349 106.82734255 -82.69512653 102.91144643 -79.5 99 C-75.44998822 94.03782876 -71.44214255 89.04830459 -67.5 84 C-60.90021042 75.55371191 -54.11185744 67.26247482 -47.33398438 58.95898438 C-41.20990338 51.45320708 -35.12576332 43.92374878 -29.16357422 36.28857422 C-25.12996759 31.13541216 -21.00059977 26.06312289 -16.86230469 20.99389648 C-12.62548998 15.79445816 -8.46269217 10.54059908 -4.33789062 5.25195312 C-1.08952873 1.08952873 -1.08952873 1.08952873 0 0 Z " fill="#F4EDED" transform="translate(374,315)"/>
<path d="M0 0 C1.17498047 -0.00386719 2.34996094 -0.00773438 3.56054688 -0.01171875 C4.77935547 -0.00011719 5.99816406 0.01148438 7.25390625 0.0234375 C8.46884766 0.01183594 9.68378906 0.00023437 10.93554688 -0.01171875 C12.69995117 -0.00591797 12.69995117 -0.00591797 14.5 0 C16.10186157 0.00507568 16.10186157 0.00507568 17.73608398 0.01025391 C23.66686884 0.75765407 27.86853328 3.65281985 31.5703125 8.171875 C33.58920217 11.77929542 33.88545498 15.5386276 34.40625 19.59375 C35.16390508 24.77466761 36.94905278 27.56879505 40.69140625 31.1484375 C45.15346479 34.36111965 48.63895137 35.63182603 54.125 35.70703125 C55.11951172 35.73216797 56.11402344 35.75730469 57.13867188 35.78320312 C59.21152711 35.81829221 61.28445069 35.84955703 63.35742188 35.87695312 C68.88768779 36.02371099 73.07213001 36.22536744 77.81640625 39.3984375 C83.2651795 45.30127519 84.15971583 49.7030843 84.12890625 57.4609375 C84.14501953 58.27626953 84.16113281 59.09160156 84.17773438 59.93164062 C84.17837891 60.71603516 84.17902344 61.50042969 84.1796875 62.30859375 C84.18266846 63.02152588 84.18564941 63.73445801 84.1887207 64.46899414 C83.68818762 67.06290426 82.91627314 67.80173375 80.81640625 69.3984375 C78.17271328 69.77316761 78.17271328 69.77316761 74.92637634 69.7726593 C73.0818261 69.78318077 73.0818261 69.78318077 71.20001221 69.79391479 C69.83508138 69.78648693 68.47015218 69.77875577 67.10522461 69.77075195 C65.6696191 69.77317957 64.23401528 69.77689859 62.79841614 69.78181458 C58.8976674 69.79123063 54.99716926 69.78179273 51.09644008 69.76848245 C47.01876578 69.75717999 42.94110404 69.76127446 38.86341858 69.76322937 C32.01624447 69.76411263 25.16916931 69.75302451 18.32202148 69.73461914 C10.39840656 69.71344256 2.47493653 69.70994323 -5.44870096 69.7161811 C-13.06318077 69.72186933 -20.6776094 69.71623605 -28.29208183 69.70500755 C-31.53647238 69.70035524 -34.7808317 69.69949043 -38.02522469 69.7015934 C-41.8427597 69.70347261 -45.66014655 69.6954009 -49.47764778 69.679533 C-50.88134142 69.67527909 -52.28505007 69.67444701 -53.68874741 69.67722321 C-55.59935426 69.68042955 -57.5099698 69.67016683 -59.42054749 69.65913391 C-60.49146165 69.65708104 -61.56237581 69.65502817 -62.66574192 69.65291309 C-65.18359375 69.3984375 -65.18359375 69.3984375 -67.18359375 67.3984375 C-67.66017326 64.17051243 -67.55397743 60.90756125 -67.55859375 57.6484375 C-67.58308594 56.75382812 -67.60757813 55.85921875 -67.6328125 54.9375 C-67.65805509 49.23267443 -67.02969189 45.89724938 -63.18359375 41.3984375 C-59.1603032 37.85411011 -56.84852738 36.29296466 -51.52734375 36.22265625 C-50.11582031 36.18688477 -50.11582031 36.18688477 -48.67578125 36.15039062 C-46.71244636 36.10809947 -44.74884626 36.07648924 -42.78515625 36.05664062 C-35.5854279 35.84689244 -28.18462979 34.80211281 -22.50585938 29.97119141 C-18.67731114 25.76127228 -18.26052529 20.22628536 -17.34155273 14.82592773 C-16.16668042 8.35073306 -14.26059411 5.581264 -8.90600586 1.78271484 C-5.70518104 0.1551768 -3.57695227 0.01134597 0 0 Z " fill="#FC7D41" transform="translate(219.18359375,14.6015625)"/>
<path d="M0 0 C0.33 0 0.66 0 1 0 C1 6.6 1 13.2 1 20 C-0.98 20.66 -2.96 21.32 -5 22 C-6.53393855 25.0678771 -6.14280427 28.28141935 -6.13803101 31.64778137 C-6.14085229 32.44633866 -6.14367357 33.24489594 -6.14658034 34.06765193 C-6.15495038 36.75840849 -6.15626664 39.44912404 -6.15771484 42.13989258 C-6.16238129 44.06308611 -6.16752457 45.98627853 -6.17311096 47.9094696 C-6.18440591 52.05865691 -6.19283333 56.20783698 -6.19923019 60.35703468 C-6.20989203 66.91575945 -6.23013184 73.47443229 -6.25234985 80.03312683 C-6.31433574 98.68620426 -6.36830308 117.33927889 -6.40136719 135.99243164 C-6.41969811 146.2884842 -6.44861493 156.5844501 -6.4893719 166.88043898 C-6.51046781 172.33167456 -6.52590282 177.7828008 -6.52817917 183.23407936 C-6.53032278 188.36160703 -6.54616284 193.48890706 -6.57256889 198.61636543 C-6.57977434 200.49933366 -6.58185685 202.38232942 -6.57846642 204.26530838 C-6.57457946 206.83423216 -6.5890009 209.4024261 -6.60800171 211.9712677 C-6.60247201 212.71796512 -6.59694232 213.46466254 -6.59124506 214.23398715 C-6.64783708 218.66071099 -7.29744948 221.4658961 -10 225 C-13.13784409 227.22354412 -15.86072089 227.23552425 -19.640625 227.1953125 C-20.71054687 227.18886719 -21.78046875 227.18242187 -22.8828125 227.17578125 C-24.54957031 227.15064453 -24.54957031 227.15064453 -26.25 227.125 C-27.37664062 227.11597656 -28.50328125 227.10695313 -29.6640625 227.09765625 C-32.44292365 227.07410658 -35.2213539 227.0412168 -38 227 C-37.67402832 226.29335205 -37.34805664 225.5867041 -37.01220703 224.85864258 C-35.92197178 221.77963521 -35.76988668 219.51559561 -35.8046875 216.26171875 C-35.81113281 215.19501953 -35.81757813 214.12832031 -35.82421875 213.02929688 C-35.84097656 211.92650391 -35.85773438 210.82371094 -35.875 209.6875 C-35.88402344 208.56537109 -35.89304687 207.44324219 -35.90234375 206.28710938 C-35.92585514 203.52452091 -35.95871845 200.76237068 -36 198 C-35.01 197.67 -34.02 197.34 -33 197 C-31.87483915 195.16715557 -31.87483915 195.16715557 -31 193 C-30.65604093 192.39913102 -30.31208185 191.79826204 -29.95769978 191.17918491 C-28.82642304 188.60503668 -28.74581707 186.75261504 -28.73930359 183.94554138 C-28.73221878 182.92626556 -28.72513397 181.90698975 -28.71783447 180.85682678 C-28.72031189 179.74448166 -28.72278931 178.63213654 -28.7253418 177.48608398 C-28.72023087 176.31013672 -28.71511993 175.13418945 -28.70985413 173.92260742 C-28.69833829 170.70162305 -28.69588393 167.48079831 -28.69841743 164.25979877 C-28.69948749 161.57074606 -28.69460308 158.88171707 -28.689812 156.19266945 C-28.67872173 149.85051481 -28.67827731 143.50841941 -28.68432617 137.16625977 C-28.69037239 130.62122726 -28.67803759 124.07640938 -28.6567561 117.5314135 C-28.63915475 111.91178562 -28.63313624 106.29222616 -28.63639385 100.67257172 C-28.63820853 97.31620035 -28.63555191 93.95998223 -28.62167931 90.60363579 C-28.60939543 86.86376072 -28.61605801 83.12438801 -28.62768555 79.38452148 C-28.62004181 78.27015213 -28.61239807 77.15578278 -28.60452271 76.00764465 C-28.61153702 74.99118866 -28.61855133 73.97473267 -28.6257782 72.92747498 C-28.62561046 72.04314002 -28.62544271 71.15880507 -28.62526989 70.24767208 C-29.08250215 67.50514309 -29.80243062 66.65669398 -32 65 C-32.99 64.67 -33.98 64.34 -35 64 C-37.2411225 46.65381193 -37.2411225 46.65381193 -34.671875 41.16015625 C-32.75 39.125 -32.75 39.125 -30.49609375 37.16796875 C-27.49727795 34.56336348 -25.19936486 31.58580806 -22.8125 28.4375 C-21.88228349 27.2379712 -20.94993308 26.04009464 -20.015625 24.84375 C-19.53158203 24.22371094 -19.04753906 23.60367187 -18.54882812 22.96484375 C-14.22679834 17.48191567 -9.78824338 12.09057587 -5.36767578 6.68701172 C-4.1220242 5.15051539 -2.90137516 3.59383431 -1.68359375 2.03515625 C-1.12800781 1.36355469 -0.57242188 0.69195312 0 0 Z " fill="#046F93" transform="translate(410,270)"/>
<path d="M0 0 C2.22855574 -0.0814222 4.45797655 -0.13938079 6.6875 -0.1875 C8.54955078 -0.23970703 8.54955078 -0.23970703 10.44921875 -0.29296875 C14.2457708 0.02027812 16.01467371 0.69242347 19 3 C21.38738869 6.58108303 21.25571625 8.17335219 21.27124023 12.42749023 C21.27646698 13.07499237 21.28169373 13.72249451 21.28707886 14.38961792 C21.29731155 15.79407264 21.303098 17.1985652 21.30496025 18.60305595 C21.30862358 20.82670166 21.32534839 23.04990122 21.34571838 25.27345276 C21.40113625 31.59473375 21.43182198 37.91608035 21.45629883 44.23754883 C21.47217854 48.10556368 21.50240097 51.97326152 21.54106331 55.84111214 C21.55270935 57.31425676 21.55864362 58.78745808 21.55874443 60.26064873 C21.55893661 62.32180735 21.57721057 64.38209239 21.59936523 66.44311523 C21.60443588 67.61543198 21.60950653 68.78774872 21.61473083 69.99559021 C22.03613969 73.28182489 22.69666306 74.66037595 25 77 C27.09415804 77.79623822 27.09415804 77.79623822 29 78 C31.26188336 95.35905721 31.26188336 95.35905721 26.26953125 102.62109375 C23.34123834 106.29247945 20.12690035 109.68622804 16.85107422 113.04785156 C14.09821472 115.95102547 11.67797483 119.07478543 9.25 122.25 C8.37282545 123.37273162 7.49522591 124.49513134 6.6171875 125.6171875 C4.77680044 127.98816163 2.95154225 130.37019098 1.1328125 132.7578125 C0.6697168 133.36463867 0.20662109 133.97146484 -0.27050781 134.59667969 C-1.15581477 135.75900411 -2.0381113 136.9236293 -2.91699219 138.09082031 C-3.9215713 139.41176317 -4.95754975 140.70873446 -6 142 C-6.33 142 -6.66 142 -7 142 C-7 135.73 -7 129.46 -7 123 C-7.99 122.67 -8.98 122.34 -10 122 C-8.88625 121.896875 -7.7725 121.79375 -6.625 121.6875 C-5.42875 121.460625 -4.2325 121.23375 -3 121 C-0.84629802 117.76944703 -0.74528827 116.88604386 -0.7215271 113.15950012 C-0.71036362 112.16250595 -0.69920013 111.16551178 -0.68769836 110.13830566 C-0.68553818 109.04570435 -0.68337799 107.95310303 -0.68115234 106.82739258 C-0.67110672 105.67603317 -0.6610611 104.52467377 -0.65071106 103.33842468 C-0.61976194 99.52379873 -0.60281119 95.70924333 -0.5859375 91.89453125 C-0.56723531 89.25322355 -0.54766262 86.61192188 -0.5272522 83.97062683 C-0.48044848 77.72338443 -0.44371214 71.47612489 -0.41057932 65.22879666 C-0.37236914 58.11635139 -0.32295612 51.00399781 -0.27259517 43.89162982 C-0.16925169 29.26115712 -0.07999915 14.63061872 0 0 Z " fill="#056E92" transform="translate(382,74)"/>
<path d="M0 0 C2.54232342 -0.08152344 5.08199202 -0.14073716 7.625 -0.1875 C8.33785156 -0.21263672 9.05070312 -0.23777344 9.78515625 -0.26367188 C15.40910833 -0.34106571 19.28042935 0.91383362 23.828125 4.40234375 C28.06611989 8.97798109 28.80676988 13.09798008 29.58984375 19.1953125 C30.34749883 24.37623011 32.13264653 27.17035755 35.875 30.75 C40.33705854 33.96268215 43.82254512 35.23338853 49.30859375 35.30859375 C50.30310547 35.33373047 51.29761719 35.35886719 52.32226562 35.38476562 C54.39512086 35.41985471 56.46804444 35.45111953 58.54101562 35.47851562 C64.07128154 35.62527349 68.25572376 35.82692994 73 39 C78.44877325 44.90283769 79.34330958 49.3046468 79.3125 57.0625 C79.32861328 57.87783203 79.34472656 58.69316406 79.36132812 59.53320312 C79.36197266 60.31759766 79.36261719 61.10199219 79.36328125 61.91015625 C79.36626221 62.62308838 79.36924316 63.33602051 79.37231445 64.07055664 C78.87168032 66.66499045 78.10120914 67.40396134 76 69 C73.35072041 69.36914349 73.35072041 69.36914349 70.09651184 69.36076355 C68.86392136 69.36488754 67.63133087 69.36901154 66.36138916 69.3732605 C64.99328395 69.36264309 63.62518095 69.35173866 62.25708008 69.34057617 C60.8182324 69.33973007 59.37938342 69.34020472 57.9405365 69.34190369 C54.03163481 69.34276572 50.12300833 69.32510644 46.21417069 69.30418181 C42.13023661 69.28544964 38.04629647 69.28366731 33.96232605 69.28010559 C26.22751774 69.27077493 18.49283637 69.24614739 10.758084 69.21605712 C1.95287943 69.18254483 -6.85233115 69.16603509 -15.65758359 69.15097082 C-33.77179442 69.11959869 -51.88588701 69.0668184 -70 69 C-70 68.67 -70 68.34 -70 68 C-30.4 68 9.2 68 50 68 C48.4229989 54.92507092 48.4229989 54.92507092 41.125 46.25 C33.82683612 40.99532201 26.05180638 41.65307487 17.41015625 41.609375 C11.4879165 41.470753 7.55564296 41.19522817 3 37 C-0.14968327 32.81436659 -0.35483935 29.68822536 -0.29296875 24.51171875 C-0.28872391 23.80852005 -0.28447906 23.10532135 -0.28010559 22.3808136 C-0.2634006 20.14930869 -0.22576614 17.91872887 -0.1875 15.6875 C-0.17244248 14.1686329 -0.15875594 12.64975154 -0.14648438 11.13085938 C-0.11352473 7.42027566 -0.06180016 3.71022822 0 0 Z " fill="#F0652F" transform="translate(224,15)"/>
<path d="M0 0 C0.83271455 -0.00280692 1.6654291 -0.00561384 2.52337742 -0.00850582 C3.48093433 -0.02123028 4.43849125 -0.03395473 5.42506504 -0.04706478 C6.47397923 -0.0405389 7.52289341 -0.03401302 8.60359287 -0.02728939 C9.70951283 -0.03590496 10.81543278 -0.04452053 11.95486546 -0.05339718 C15.62064428 -0.07615101 19.28566445 -0.06930037 22.95149326 -0.06024837 C25.49353355 -0.06547995 28.0355719 -0.0717547 30.57760715 -0.07903194 C35.90993983 -0.08945377 41.24199565 -0.08517714 46.574296 -0.07025814 C52.73717685 -0.05333819 58.89934934 -0.06916677 65.0621528 -0.10148102 C70.99155207 -0.13139314 76.92073089 -0.13336235 82.85020733 -0.12398243 C85.37284421 -0.12316078 87.89549562 -0.13006479 90.41808987 -0.14475346 C93.94269237 -0.16212807 97.4657711 -0.14771335 100.99031162 -0.12494564 C102.56064655 -0.14248394 102.56064655 -0.14248394 104.16270542 -0.16037655 C111.20792001 -0.06754853 111.20792001 -0.06754853 114.53720188 2.85419559 C115.86164951 5.50615788 115.86164951 5.50615788 115.92414951 8.56865788 C114.53320481 12.41421088 113.38534641 13.40034388 109.86164951 15.50615788 C106.33459878 16.10214024 102.8460122 16.0628406 99.27571201 16.03960514 C98.21012058 16.04822071 97.14452915 16.05683628 96.04664707 16.06571293 C92.5264004 16.0884048 89.00694765 16.08162807 85.48664951 16.07256413 C83.03954424 16.07779801 80.59244098 16.08407362 78.14534092 16.09134769 C73.0174774 16.10175772 67.88989128 16.0971811 62.76204014 16.08257389 C56.18767069 16.06538001 49.61417468 16.08888689 43.03990269 16.12406349 C37.98699739 16.1460124 32.93430192 16.14460207 27.88136387 16.13629818 C25.45724116 16.1354774 23.03310325 16.14236481 20.609025 16.15706921 C17.22133087 16.17446902 13.83521724 16.16000887 10.44758701 16.13726139 C9.44483738 16.14895359 8.44208775 16.16064579 7.40895176 16.1726923 C2.73817546 16.1088104 0.56012867 16.03007513 -3.26872158 13.15812016 C-5.55072013 9.92123499 -5.799018 8.3875795 -5.13835049 4.50615788 C-3.66157685 1.94369997 -2.93230261 0.69409017 0 0 Z " fill="#070707" transform="translate(219.13835048675537,248.49384212493896)"/>
<path d="M0 0 C1.59597771 -0.01292336 1.59597771 -0.01292336 3.22419739 -0.02610779 C6.73963786 -0.04880153 10.25428335 -0.04202203 13.76977539 -0.03295898 C16.21448504 -0.03819317 18.65919266 -0.0444689 21.10389709 -0.05174255 C26.22756452 -0.06215322 31.35095433 -0.05757563 36.47460938 -0.04296875 C43.03991297 -0.02578395 49.60434118 -0.04927021 56.16954708 -0.08445835 C61.21820371 -0.1064214 66.26665057 -0.10499334 71.31534004 -0.09669304 C73.73584516 -0.09587286 76.15636557 -0.10274886 78.5768261 -0.11746407 C81.96192052 -0.13488779 85.34543773 -0.12038317 88.73046875 -0.09765625 C89.72962311 -0.10934845 90.72877747 -0.12104065 91.75820923 -0.13308716 C96.22157342 -0.07213258 99.47168308 0.06567797 103.09083557 2.84632874 C105.42993164 5.53344727 105.42993164 5.53344727 105.55493164 9.15844727 C104.31639832 12.87404723 103.70117007 13.60159091 100.42993164 15.53344727 C98.19976807 15.913764 98.19976807 15.913764 95.72387695 15.92112732 C94.78177368 15.93103195 93.83967041 15.94093658 92.86901855 15.95114136 C91.84240112 15.94663971 90.81578369 15.94213806 89.75805664 15.9375 C88.6714978 15.94436325 87.58493896 15.9512265 86.4654541 15.95829773 C82.87014742 15.97661461 79.27527501 15.97272144 75.67993164 15.96704102 C73.18416196 15.97160013 70.68839354 15.97690489 68.19262695 15.98292542 C62.96049027 15.9918659 57.72846663 15.98965555 52.49633789 15.97949219 C46.44997847 15.96800667 40.40406239 15.98209412 34.35776138 16.00888866 C28.5378212 16.03371341 22.71805367 16.03622462 16.89807129 16.0297718 C14.42288475 16.02961817 11.94768984 16.03569733 9.47253418 16.04806328 C6.0152871 16.06290263 2.55902249 16.05234748 -0.89819336 16.03515625 C-2.43811951 16.0496582 -2.43811951 16.0496582 -4.00915527 16.06445312 C-10.90356174 15.99248592 -10.90356174 15.99248592 -14.2019043 13.72084045 C-16.24455451 10.45509237 -16.17483776 8.29645687 -15.57006836 4.53344727 C-11.18794719 -0.57543063 -6.24182998 -0.04068548 0 0 Z " fill="#050505" transform="translate(229.570068359375,140.466552734375)"/>
<path d="M0 0 C1.62742882 -0.01292336 1.62742882 -0.01292336 3.28773499 -0.02610779 C6.8783445 -0.04883216 10.46817761 -0.04201638 14.05883789 -0.03295898 C16.55221286 -0.03819184 19.04558584 -0.04446707 21.53895569 -0.05174255 C26.7669302 -0.06215886 31.99470254 -0.05789624 37.22265625 -0.04296875 C42.59363873 -0.02791985 47.96403384 -0.03495679 53.33496094 -0.06347656 C59.81709508 -0.09750663 66.29876443 -0.10714485 72.78097725 -0.09669304 C75.25254824 -0.09587211 77.72413414 -0.10276242 80.19566154 -0.11746407 C83.65050985 -0.1348627 87.10380813 -0.12040395 90.55859375 -0.09765625 C91.58161591 -0.10934845 92.60463806 -0.12104065 93.65866089 -0.13308716 C98.38136838 -0.06974603 100.62604345 0.00103132 104.51026917 2.88148499 C106.34399414 5.53344727 106.34399414 5.53344727 106.46899414 8.59594727 C105.0099509 12.40567128 103.85940407 13.42993099 100.34399414 15.53344727 C96.81696353 16.12949237 93.32834349 16.0901299 89.75805664 16.06689453 C88.69246521 16.0755101 87.62687378 16.08412567 86.5289917 16.09300232 C83.00874503 16.11569419 79.48929228 16.10891746 75.96899414 16.09985352 C73.52188886 16.1050874 71.07478561 16.11136301 68.62768555 16.11863708 C63.49982203 16.12904711 58.37223591 16.12447049 53.24438477 16.10986328 C46.67001531 16.0926694 40.0965193 16.11617628 33.52224731 16.15135288 C28.46934202 16.17330179 23.41664655 16.17189146 18.3637085 16.16358757 C15.93958579 16.16276679 13.51544787 16.1696542 11.09136963 16.1843586 C7.7036755 16.20175841 4.31756186 16.18729827 0.92993164 16.16455078 C-0.07281799 16.17624298 -1.07556763 16.18793518 -2.10870361 16.19998169 C-6.77831035 16.13611578 -8.95631932 16.05892587 -12.7824707 13.18540955 C-14.65600586 10.53344727 -14.65600586 10.53344727 -15.21850586 7.47094727 C-13.62235725 -0.86449547 -6.99886729 -0.04455775 0 0 Z " fill="#050505" transform="translate(228.656005859375,174.466552734375)"/>
<path d="M0 0 C3.96761661 1.73494346 7.03891709 3.97884941 10 7.125 C11.82881481 12.38284258 12.27503971 17.91865404 10.109375 23.15234375 C8.55610312 25.58985776 6.8363088 27.76478031 5 30 C3.97196863 31.27809305 2.94469138 32.55679287 1.91796875 33.8359375 C-0.29726464 36.58417855 -2.53248837 39.3143199 -4.78125 42.03515625 C-7.98107523 45.93055324 -11.00978639 49.94233401 -14 54 C-19.01041849 50.7986808 -23.59085836 47.20378057 -28.1875 43.4375 C-28.89841797 42.86064453 -29.60933594 42.28378906 -30.34179688 41.68945312 C-33.35879292 39.22874234 -36.28357579 36.79437784 -39 34 C-38.18917969 33.00742188 -37.37835938 32.01484375 -36.54296875 30.9921875 C-35.42446522 29.61980304 -34.30597676 28.24740628 -33.1875 26.875 C-32.30650635 25.79750488 -32.30650635 25.79750488 -31.40771484 24.69824219 C-28.52520053 21.16022219 -25.67798474 17.60748268 -22.93359375 13.9609375 C-22.45833252 13.33461426 -21.98307129 12.70829102 -21.4934082 12.06298828 C-20.607717 10.8895462 -19.73182712 9.70861415 -18.86791992 8.51904297 C-14.2115575 2.37989741 -7.97725441 -1.75924242 0 0 Z " fill="#FBC0A8" transform="translate(449,162)"/>
<path d="M0 0 C1.9375 1.125 1.9375 1.125 3 3 C3.8150638 9.61107305 1.71745614 12.68602752 -2.125 17.6875 C-3.22396539 19.1735119 -4.32156218 20.66053666 -5.41796875 22.1484375 C-5.99981934 22.92928711 -6.58166992 23.71013672 -7.18115234 24.51464844 C-9.08441488 27.11534812 -10.91789093 29.75476735 -12.73828125 32.4140625 C-13.66326416 33.76238159 -13.66326416 33.76238159 -14.60693359 35.13793945 C-15.80535178 36.88889588 -16.99984694 38.6425454 -18.18994141 40.39916992 C-21.75494926 45.55823226 -24.82909667 49.94303222 -31 52 C-35.55371928 52.42959616 -38.55006698 52.26234941 -42.2734375 49.46484375 C-45.41922682 46.79590485 -48.48289548 44.04183526 -51.5234375 41.25390625 C-53.66556703 39.30436565 -55.84234633 37.4217645 -58.0625 35.5625 C-61.27699988 32.7583618 -61.86613177 32.23158768 -62.3125 28.125 C-62 25 -62 25 -60.375 22.625 C-58 21 -58 21 -55.3125 20.3125 C-50.14892543 21.38418529 -46.91297009 24.59341427 -43 28 C-42.22269531 28.66773438 -41.44539063 29.33546875 -40.64453125 30.0234375 C-38.74899476 31.6673541 -36.86824048 33.32520131 -35 35 C-32.01534075 32.169308 -29.64413079 29.24983385 -27.3203125 25.859375 C-26.29744141 24.37630859 -26.29744141 24.37630859 -25.25390625 22.86328125 C-24.20009766 21.32220703 -24.20009766 21.32220703 -23.125 19.75 C-8.35625476 -1.75921153 -8.35625476 -1.75921153 0 0 Z " fill="#040404" transform="translate(182,356)"/>
<path d="M0 0 C3.5 0.8125 3.5 0.8125 5.4375 2 C7.01194619 4.68581998 6.72976137 6.73897087 6.5 9.8125 C5.390625 12.20703125 5.390625 12.20703125 3.75 14.625 C3.11449219 15.56988281 2.47898438 16.51476562 1.82421875 17.48828125 C1.05127823 18.59760986 0.27637277 19.70557076 -0.5 20.8125 C-1.18328369 21.79549072 -1.18328369 21.79549072 -1.88037109 22.79833984 C-4.91468992 27.15847822 -7.98325898 31.49299145 -11.07373047 35.81347656 C-12.36080492 37.61740769 -13.63733541 39.42818849 -14.91015625 41.2421875 C-15.59980469 42.21414063 -16.28945312 43.18609375 -17 44.1875 C-17.5878125 45.02023437 -18.175625 45.85296875 -18.78125 46.7109375 C-21.36531192 49.87054049 -23.62917114 51.52222371 -27.5 52.8125 C-33.35662214 53.36501152 -35.82726616 52.24816127 -40.5 48.8125 C-42.36447641 47.20203231 -44.19811548 45.55520554 -46 43.875 C-48.98801312 41.11088433 -51.96044648 38.37318944 -55.125 35.8125 C-57.99382941 33.39664365 -58.41000062 32.64049426 -58.8125 28.9375 C-58.5 25.8125 -58.5 25.8125 -56.9375 23.4375 C-53.53683506 21.17039004 -51.5366723 21.3433161 -47.5 21.8125 C-45.14985061 23.53848253 -43.36078028 25.05843338 -41.375 27.125 C-37.9779772 30.52641172 -34.7742154 33.51882763 -30.5 35.8125 C-29.28043131 34.08477769 -28.06090458 32.35702575 -26.84155273 30.62915039 C-25.77144045 29.11352732 -24.70062787 27.59839848 -23.62915039 26.08374023 C-20.78186195 22.05662925 -17.94677194 18.02194897 -15.13671875 13.96875 C-14.60014648 13.19845459 -14.06357422 12.42815918 -13.51074219 11.63452148 C-12.47714039 10.15004218 -11.4477058 8.66265101 -10.42285156 7.17211914 C-9.95202148 6.49785889 -9.48119141 5.82359863 -8.99609375 5.12890625 C-8.58544678 4.53537354 -8.1747998 3.94184082 -7.75170898 3.33032227 C-5.27453152 0.32649697 -3.86311028 -0.20695234 0 0 Z " fill="#040404" transform="translate(178.5,247.1875)"/>
<path d="M0 0 C2.8990531 0.08418303 3.75595876 0.12593524 6.0625 2 C7.37250651 5.11126547 7.42251081 6.99889858 7.0625 10.375 C5.61293972 12.93687593 4.17627711 15.15232306 2.4375 17.5 C1.4320552 18.9047787 0.42685932 20.30973559 -0.578125 21.71484375 C-1.11888672 22.4610498 -1.65964844 23.20725586 -2.21679688 23.97607422 C-4.04635159 26.52675591 -5.83147611 29.10447923 -7.609375 31.69140625 C-8.22474121 32.5839209 -8.84010742 33.47643555 -9.47412109 34.39599609 C-10.67713385 36.14092376 -11.87806501 37.88728883 -13.07666016 39.63525391 C-20.73264926 50.64004975 -20.73264926 50.64004975 -25.9375 52.375 C-29.78074697 52.97384913 -33.41938599 53.24522478 -36.8762207 51.26367188 C-37.49070068 50.77447266 -38.10518066 50.28527344 -38.73828125 49.78125 C-39.42575439 49.235896 -40.11322754 48.69054199 -40.8215332 48.12866211 C-41.51980225 47.54995361 -42.21807129 46.97124512 -42.9375 46.375 C-43.61321045 45.81627197 -44.2889209 45.25754395 -44.98510742 44.68188477 C-47.00390565 42.9693431 -48.97332839 41.21228329 -50.9375 39.4375 C-51.61683594 38.85548828 -52.29617187 38.27347656 -52.99609375 37.67382812 C-56.38721814 34.59315879 -57.81224285 33.25543069 -58.4765625 28.5859375 C-57.9375 25.375 -57.9375 25.375 -56.3125 22.9375 C-53.20882796 20.8956105 -51.61237592 20.96219343 -47.9375 21.375 C-45.12109375 23.16796875 -45.12109375 23.16796875 -42.375 25.5625 C-41.46621094 26.33980469 -40.55742187 27.11710937 -39.62109375 27.91796875 C-37.79014222 29.59434213 -36.01231752 31.33015894 -34.28515625 33.11328125 C-32.07337308 35.5688551 -32.07337308 35.5688551 -28.9375 36.375 C-28.73382813 35.72789062 -28.53015625 35.08078125 -28.3203125 34.4140625 C-26.36394216 30.11446894 -23.61338716 26.53769344 -20.8125 22.75 C-20.23008545 21.95400391 -19.6476709 21.15800781 -19.04760742 20.33789062 C-17.88418244 18.74819344 -16.71877504 17.15994497 -15.55126953 15.57324219 C-14.14834746 13.66221187 -12.7557476 11.74459471 -11.37109375 9.8203125 C-4.61546481 0.43956808 -4.61546481 0.43956808 0 0 Z " fill="#040404" transform="translate(177.9375,137.625)"/>
<path d="M0 0 C1.16478378 -0.01583633 2.32956757 -0.03167267 3.52964783 -0.04798889 C4.78387039 -0.04302902 6.03809296 -0.03806915 7.33032227 -0.03295898 C9.268395 -0.04225685 9.268395 -0.04225685 11.24562073 -0.05174255 C13.97854444 -0.06214113 16.71094732 -0.05759469 19.44384766 -0.04296875 C22.93913677 -0.02579013 26.43278053 -0.04926355 29.92788601 -0.08445835 C33.27046105 -0.11175532 36.61264094 -0.10169438 39.95532227 -0.09545898 C41.83361977 -0.1153463 41.83361977 -0.1153463 43.74986267 -0.13563538 C53.4038434 -0.03203858 53.4038434 -0.03203858 56.53759766 2.87744141 C58.20922852 5.53344727 58.20922852 5.53344727 58.20922852 8.65844727 C56.93320793 12.32700645 55.64044407 13.81783949 52.20922852 15.53344727 C50.41832987 15.64461985 48.62335933 15.69266303 46.82910156 15.71044922 C45.14176155 15.72970207 45.14176155 15.72970207 43.42033386 15.74934387 C41.5891375 15.76042427 41.5891375 15.76042427 39.72094727 15.77172852 C37.84521782 15.78383614 37.84521782 15.78383614 35.93159485 15.79618835 C33.28101893 15.81003922 30.63056783 15.82105263 27.97998047 15.82861328 C24.59032103 15.83966939 21.20131959 15.87405947 17.81189251 15.91378498 C14.57330941 15.94627032 11.33466846 15.9507319 8.09594727 15.95922852 C6.27385994 15.98549065 6.27385994 15.98549065 4.41496277 16.01228333 C3.28061295 16.00935776 2.14626312 16.00643219 0.97753906 16.00341797 C-0.01792435 16.00928421 -1.01338776 16.01515045 -2.03901672 16.02119446 C-5.59133455 15.39154785 -7.2679756 14.07334301 -9.79077148 11.53344727 C-10.35327148 8.03344727 -10.35327148 8.03344727 -9.79077148 4.53344727 C-6.83312778 0.67046903 -4.78602756 0.02896658 0 0 Z " fill="#040404" transform="translate(223.790771484375,281.466552734375)"/>
<path d="M0 0 C3.42082562 0.75812967 5.34909632 1.81778545 8.07421875 4.0546875 C8.82380859 4.66957031 9.57339844 5.28445313 10.34570312 5.91796875 C11.11849609 6.56378906 11.89128906 7.20960938 12.6875 7.875 C13.47189453 8.51308594 14.25628906 9.15117187 15.06445312 9.80859375 C20.87258133 14.61774398 20.87258133 14.61774398 22 18 C21.46375 18.42667969 20.9275 18.85335938 20.375 19.29296875 C15.65699401 23.05650971 10.9588117 26.84214617 6.28222656 30.65698242 C3.54487476 32.88691786 0.79932591 35.10668049 -1.9453125 37.32763672 C-3.97370743 38.97859979 -5.98734197 40.64631773 -8 42.31640625 C-9.24959123 43.33643846 -10.49957333 44.3559921 -11.75 45.375 C-12.60803223 46.09876831 -12.60803223 46.09876831 -13.48339844 46.8371582 C-17.46394868 50.04729865 -17.46394868 50.04729865 -20.390625 49.7890625 C-20.92171875 49.52867187 -21.4528125 49.26828125 -22 49 C-21.54018021 42.58912412 -19.22654804 37.79902014 -16.30859375 32.12890625 C-15.61154076 30.74541237 -15.61154076 30.74541237 -14.90040588 29.33396912 C-13.42213691 26.40529434 -11.9300748 23.48390547 -10.4375 20.5625 C-9.42941823 18.57142923 -8.42224659 16.57989738 -7.41601562 14.58789062 C-4.95452464 9.71987171 -2.481688 4.85775085 0 0 Z " fill="#52757D" transform="translate(231,422)"/>
</svg>
